<svg width="121" height="40" viewBox="0 0 121 40" fill="none" xmlns="http://www.w3.org/2000/svg">
<rect x="1" y="0.5" width="119" height="39" rx="5.5" fill="black"/>
<rect x="1" y="0.5" width="119" height="39" rx="5.5" stroke="#A6A6A6"/>
<path d="M25.2045 20.7631C25.2166 19.8432 25.4669 18.9412 25.9321 18.1411C26.3972 17.341 27.0621 16.6688 27.8648 16.187C27.3548 15.4759 26.6821 14.8908 25.9 14.478C25.1178 14.0652 24.2479 13.8361 23.3592 13.809C21.4635 13.6147 19.6258 14.9164 18.6598 14.9164C17.6751 14.9164 16.1878 13.8282 14.5862 13.8604C13.5502 13.8931 12.5406 14.1872 11.6557 14.7141C10.7708 15.241 10.0407 15.9826 9.53674 16.8669C7.35352 20.5573 8.98201 25.9809 11.0734 28.964C12.1197 30.4247 13.3426 32.0563 14.9428 31.9985C16.5086 31.9351 17.0934 31.0237 18.9835 31.0237C20.8561 31.0237 21.4048 31.9985 23.0374 31.9617C24.7176 31.9351 25.7762 30.4945 26.7859 29.0199C27.5377 27.9791 28.1162 26.8288 28.5 25.6116C27.5238 25.2085 26.6908 24.5338 26.1048 23.6716C25.5187 22.8094 25.2056 21.7979 25.2045 20.7631Z" fill="white"/>
<path d="M22.1208 11.8471C23.0369 10.7734 23.4883 9.39335 23.379 8C21.9793 8.14352 20.6865 8.7966 19.758 9.82911C19.304 10.3335 18.9563 10.9203 18.7348 11.556C18.5132 12.1917 18.4222 12.8638 18.4669 13.5338C19.1669 13.5408 19.8595 13.3927 20.4924 13.1005C21.1253 12.8084 21.6821 12.3798 22.1208 11.8471Z" fill="white"/>
<path d="M37.291 8.50146H39.3608C41.1494 8.50146 42.0195 9.56494 42.0195 11.4941C42.0195 13.4233 41.1406 14.5 39.3608 14.5H37.291V8.50146ZM38.2886 9.34082V13.6606H39.251C40.4375 13.6606 40.9956 12.9443 40.9956 11.5073C40.9956 10.0615 40.4331 9.34082 39.251 9.34082H38.2886ZM45.1748 9.77588C46.3877 9.77588 47.2358 10.5625 47.2358 11.8677V12.4697C47.2358 13.8188 46.3877 14.5791 45.1748 14.5791C43.9443 14.5791 43.105 13.8276 43.105 12.4741V11.8721C43.105 10.6021 43.9575 9.77588 45.1748 9.77588ZM45.1792 10.5625C44.4849 10.5625 44.0894 11.1426 44.0894 11.9204V12.439C44.0894 13.2168 44.4585 13.7925 45.1792 13.7925C45.8911 13.7925 46.2559 13.2212 46.2559 12.439V11.9204C46.2559 11.1426 45.8735 10.5625 45.1792 10.5625ZM54.3989 9.85498L53.1772 14.5H52.1841L51.2129 11.0723H51.1865L50.2329 14.5H49.2354L47.9609 9.85498H49.0112L49.7583 13.397H49.8022L50.7383 9.85498H51.6567L52.6191 13.397H52.6631L53.4233 9.85498H54.3989ZM55.3657 14.5V9.85498H56.3237V10.6899H56.3721C56.4907 10.3252 56.8291 9.78467 57.7695 9.78467C58.7056 9.78467 59.334 10.3032 59.334 11.3623V14.5H58.3584V11.6479C58.3584 10.9404 57.9893 10.6152 57.4399 10.6152C56.7192 10.6152 56.3413 11.1689 56.3413 11.9204V14.5H55.3657ZM60.8105 14.5V8.18506H61.7861V14.5H60.8105ZM65.1348 9.77588C66.3477 9.77588 67.1958 10.5625 67.1958 11.8677V12.4697C67.1958 13.8188 66.3477 14.5791 65.1348 14.5791C63.9043 14.5791 63.0649 13.8276 63.0649 12.4741V11.8721C63.0649 10.6021 63.9175 9.77588 65.1348 9.77588ZM65.1392 10.5625C64.4448 10.5625 64.0493 11.1426 64.0493 11.9204V12.439C64.0493 13.2168 64.4185 13.7925 65.1392 13.7925C65.8511 13.7925 66.2158 13.2212 66.2158 12.439V11.9204C66.2158 11.1426 65.8335 10.5625 65.1392 10.5625ZM69.7227 14.5703C68.8218 14.5703 68.2021 14.0166 68.2021 13.1509C68.2021 12.3291 68.7734 11.7754 69.8457 11.7754H71.019V11.3403C71.019 10.8086 70.6807 10.5581 70.1445 10.5581C69.6172 10.5581 69.3799 10.7778 69.3052 11.0854H68.3779C68.4351 10.3076 69.0195 9.78467 70.1753 9.78467C71.1685 9.78467 71.9902 10.1978 71.9902 11.3535V14.5H71.063V13.8979H71.019C70.8125 14.2539 70.4082 14.5703 69.7227 14.5703ZM70.0259 13.8145C70.5796 13.8145 71.019 13.4365 71.019 12.9312V12.4302H69.9995C69.4326 12.4302 69.1821 12.7158 69.1821 13.1025C69.1821 13.5859 69.5864 13.8145 70.0259 13.8145ZM74.9961 9.79346C75.6509 9.79346 76.1519 10.0835 76.332 10.5537H76.3804V8.18506H77.356V14.5H76.4067V13.7573H76.3584C76.2178 14.2275 75.6597 14.5615 74.9829 14.5615C73.915 14.5615 73.2207 13.8013 73.2207 12.5752V11.7798C73.2207 10.5537 73.9282 9.79346 74.9961 9.79346ZM75.2686 10.5933C74.6182 10.5933 74.2139 11.0767 74.2139 11.9204V12.4302C74.2139 13.2783 74.6226 13.7617 75.2905 13.7617C75.9497 13.7617 76.3804 13.2827 76.3804 12.4917V11.7886C76.3804 11.0723 75.9102 10.5933 75.2686 10.5933ZM82.7129 9.77588C83.9258 9.77588 84.7739 10.5625 84.7739 11.8677V12.4697C84.7739 13.8188 83.9258 14.5791 82.7129 14.5791C81.4824 14.5791 80.6431 13.8276 80.6431 12.4741V11.8721C80.6431 10.6021 81.4956 9.77588 82.7129 9.77588ZM82.7173 10.5625C82.0229 10.5625 81.6274 11.1426 81.6274 11.9204V12.439C81.6274 13.2168 81.9966 13.7925 82.7173 13.7925C83.4292 13.7925 83.7939 13.2212 83.7939 12.439V11.9204C83.7939 11.1426 83.4116 10.5625 82.7173 10.5625ZM86.0308 14.5V9.85498H86.9888V10.6899H87.0371C87.1558 10.3252 87.4941 9.78467 88.4346 9.78467C89.3706 9.78467 89.999 10.3032 89.999 11.3623V14.5H89.0234V11.6479C89.0234 10.9404 88.6543 10.6152 88.105 10.6152C87.3843 10.6152 87.0063 11.1689 87.0063 11.9204V14.5H86.0308ZM93.7739 9.88574V8.72559H94.7275V9.88574H95.769V10.6504H94.7275V13.1157C94.7275 13.6211 94.9165 13.7617 95.4395 13.7617C95.5713 13.7617 95.7471 13.7529 95.8218 13.7441V14.4912C95.7427 14.5044 95.4175 14.5308 95.1978 14.5308C94.0684 14.5308 93.7607 14.1265 93.7607 13.1948V10.6504H93.0532V9.88574H93.7739ZM96.9995 14.5V8.18506H97.9707V10.6899H98.019C98.1201 10.3604 98.498 9.78467 99.4297 9.78467C100.335 9.78467 100.981 10.3076 100.981 11.3667V14.5H100.01V11.6523C100.01 10.9448 99.6187 10.6152 99.0649 10.6152C98.3662 10.6152 97.9707 11.1646 97.9707 11.9204V14.5H96.9995ZM104.255 14.5791C102.989 14.5791 102.203 13.8013 102.203 12.4917V11.8633C102.203 10.5449 103.064 9.77588 104.198 9.77588C105.362 9.77588 106.184 10.5845 106.184 11.8633V12.4082H103.169V12.6367C103.169 13.3047 103.565 13.7969 104.25 13.7969C104.76 13.7969 105.112 13.5552 105.178 13.2651H106.131C106.074 13.8013 105.507 14.5791 104.255 14.5791ZM103.169 11.771H105.23V11.7095C105.23 11.0107 104.822 10.5449 104.202 10.5449C103.583 10.5449 103.169 11.0107 103.169 11.7095V11.771Z" fill="white"/>
<path d="M38.7061 30.5H36.6758L40.8066 18.5029H43.0391L47.1611 30.5H45.0518L43.9883 27.1777H39.7783L38.7061 30.5ZM41.9316 20.5771H41.8525L40.2266 25.6484H43.54L41.9316 20.5771ZM52.7644 30.6318C51.5603 30.6318 50.6462 30.0605 50.154 29.208H50.0837V33.585H48.1325V21.21H50.031V22.5723H50.1013C50.6111 21.6846 51.5603 21.0869 52.8083 21.0869C54.8913 21.0869 56.3767 22.6602 56.3767 25.4375V26.2637C56.3767 29.0234 54.9089 30.6318 52.7644 30.6318ZM52.3161 29.0234C53.5554 29.0234 54.3991 28.0303 54.3991 26.1582V25.5078C54.3991 23.7061 53.6081 22.6777 52.281 22.6777C50.9187 22.6777 50.0661 23.7852 50.0661 25.499V26.1582C50.0661 27.916 50.9275 29.0234 52.3161 29.0234ZM62.683 30.6318C61.4789 30.6318 60.5649 30.0605 60.0727 29.208H60.0024V33.585H58.0512V21.21H59.9496V22.5723H60.02C60.5297 21.6846 61.4789 21.0869 62.727 21.0869C64.81 21.0869 66.2954 22.6602 66.2954 25.4375V26.2637C66.2954 29.0234 64.8276 30.6318 62.683 30.6318ZM62.2348 29.0234C63.4741 29.0234 64.3178 28.0303 64.3178 26.1582V25.5078C64.3178 23.7061 63.5268 22.6777 62.1996 22.6777C60.8373 22.6777 59.9848 23.7852 59.9848 25.499V26.1582C59.9848 27.916 60.8461 29.0234 62.2348 29.0234ZM70.3387 27.1689H72.2899C72.3778 28.2061 73.2919 29.0938 74.9882 29.0938C76.5438 29.0938 77.4667 28.3643 77.4667 27.2305C77.4667 26.3164 76.8514 25.8242 75.5682 25.5166L73.5995 25.0244C72.0526 24.6641 70.6639 23.7412 70.6639 21.79C70.6639 19.4961 72.6679 18.2393 74.997 18.2393C77.3261 18.2393 79.2684 19.4961 79.3124 21.7373H77.3964C77.3085 20.7178 76.5262 19.874 74.9706 19.874C73.5995 19.874 72.6679 20.5244 72.6679 21.6406C72.6679 22.4229 73.2128 22.9854 74.329 23.2402L76.2889 23.7236C78.0907 24.1631 79.4618 25.0156 79.4618 27.0547C79.4618 29.4102 77.5546 30.7373 74.8387 30.7373C71.4989 30.7373 70.3827 28.7861 70.3387 27.1689ZM81.8395 21.21V18.9512H83.7555V21.21H85.566V22.7744H83.7555V27.7314C83.7555 28.7422 84.1334 29.0234 85.1793 29.0234C85.3463 29.0234 85.5045 29.0234 85.6188 29.0059V30.5C85.4605 30.5264 85.0914 30.5615 84.6959 30.5615C82.4371 30.5615 81.8131 29.7529 81.8131 27.8896V22.7744H80.5299V21.21H81.8395ZM90.8353 21.0518C93.5071 21.0518 94.9573 22.9326 94.9573 25.4639V26.2109C94.9573 28.8301 93.5159 30.6582 90.8353 30.6582C88.1546 30.6582 86.6956 28.8301 86.6956 26.2109V25.4639C86.6956 22.9414 88.1634 21.0518 90.8353 21.0518ZM90.8353 22.6162C89.3851 22.6162 88.6644 23.8027 88.6644 25.4902V26.2021C88.6644 27.8633 89.3763 29.085 90.8353 29.085C92.2943 29.085 92.9974 27.8721 92.9974 26.2021V25.4902C92.9974 23.7939 92.2855 22.6162 90.8353 22.6162ZM96.6055 30.5V21.21H98.5567V22.4316H98.627C98.8643 21.8516 99.5586 21.0781 100.851 21.0781C101.106 21.0781 101.325 21.0957 101.51 21.1309V22.8535C101.343 22.8096 101 22.7832 100.675 22.7832C99.1104 22.7832 98.583 23.75 98.583 24.998V30.5H96.6055ZM106.243 30.6582C103.756 30.6582 102.174 29.0146 102.174 26.2637V25.3232C102.174 22.7305 103.72 21.0518 106.164 21.0518C108.642 21.0518 110.136 22.792 110.136 25.4111V26.2988H104.098V26.5186C104.098 28.083 104.942 29.1201 106.269 29.1201C107.262 29.1201 107.939 28.6279 108.177 27.8281H110.031C109.75 29.3311 108.537 30.6582 106.243 30.6582ZM104.098 24.9365H108.229V24.9189C108.229 23.6006 107.412 22.5635 106.173 22.5635C104.916 22.5635 104.098 23.6006 104.098 24.9189V24.9365Z" fill="white"/>
</svg>
