<svg width="266" height="44" viewBox="0 0 266 44" fill="none" xmlns="http://www.w3.org/2000/svg">
	<path d="M90.7332 27.3234C90.3996 27.9035 89.9825 28.4008 89.4404 28.8152C88.94 29.2297 88.3144 29.6026 87.6472 29.8513C86.9799 30.0999 86.1876 30.2243 85.3535 30.2243C84.436 30.2243 83.5603 30.0171 82.6845 29.6026C81.8088 29.1882 81.0581 28.608 80.3909 27.9035C79.7236 27.1576 79.1815 26.2873 78.7644 25.2927C78.3474 24.2981 78.1389 23.1792 78.1389 22.0188C78.1389 20.817 78.3474 19.7396 78.7644 18.745C79.1815 17.7504 79.7236 16.8801 80.3909 16.1342C81.0581 15.3882 81.8088 14.8495 82.6845 14.4351C83.5603 14.0206 84.436 13.8134 85.3535 13.8134C86.1459 13.8134 86.8965 13.9378 87.5221 14.1864C88.1893 14.4351 88.7315 14.7666 89.2736 15.181C89.774 15.5954 90.1911 16.0927 90.5247 16.6729C90.8583 17.2531 91.1502 17.8747 91.317 18.4963H94.8201C94.5699 17.4603 94.1528 16.4657 93.6107 15.5125C93.0686 14.5594 92.3596 13.772 91.5673 13.0675C90.7749 12.363 89.8157 11.8242 88.7732 11.4098C87.7306 10.9954 86.5629 10.7882 85.3535 10.7882C83.9356 10.7882 82.6011 11.0783 81.3083 11.6585C80.0155 12.2387 78.9313 13.026 77.9721 14.0206C77.0129 15.0152 76.2623 16.217 75.6784 17.5846C75.0946 18.9522 74.8027 20.4026 74.8027 21.9774C74.8027 23.5522 75.0946 25.0441 75.6784 26.3702C76.2623 27.7378 77.0129 28.8981 77.9721 29.9342C78.9313 30.9702 80.0572 31.7576 81.3083 32.2963C82.6011 32.8765 83.9356 33.1666 85.3535 33.1666C86.6046 33.1666 87.7723 32.9594 88.8566 32.545C89.9408 32.1306 90.8583 31.5918 91.6924 30.8873C92.5264 30.1828 93.2354 29.354 93.7775 28.4423C94.3197 27.4891 94.7367 26.536 95.0286 25.4585H91.5256C91.3587 26.163 91.0668 26.7432 90.7332 27.3234Z" fill="white"/>
	<path d="M104.829 17.1287C104.704 17.1287 104.537 17.0873 104.37 17.0873C103.703 17.0873 103.119 17.1702 102.619 17.3774C102.118 17.5846 101.701 17.7503 101.367 17.9575C100.992 18.2062 100.659 18.4963 100.367 18.8278V18.7864C100.033 18.1233 99.4908 17.5846 98.7819 17.253C98.3649 17.0458 97.9061 16.9215 97.4057 16.9215V17.253V33.0008H100.575V24.0909C100.575 23.5936 100.659 23.0963 100.867 22.6404C101.076 22.1846 101.326 21.7702 101.701 21.3972C102.035 21.0242 102.452 20.7756 102.91 20.5684C103.369 20.3612 103.87 20.2368 104.412 20.2368C104.537 20.2368 104.662 20.2368 104.787 20.2783C104.912 20.3197 105.037 20.3197 105.162 20.3612C105.288 20.3612 105.413 20.4026 105.496 20.444V17.2945C105.413 17.2945 105.329 17.253 105.204 17.2116C105.037 17.1702 104.912 17.1702 104.829 17.1287Z" fill="white"/>
	<path d="M119.091 19.3666C118.424 18.6621 117.632 18.0819 116.756 17.709C115.838 17.2946 114.879 17.1288 113.878 17.1288C112.878 17.1288 111.918 17.336 111.001 17.709C110.083 18.1234 109.333 18.6621 108.665 19.3666C107.998 20.0711 107.498 20.9414 107.081 21.8946C106.705 22.8891 106.497 23.9666 106.497 25.127C106.497 26.3288 106.705 27.4063 107.081 28.4009C107.456 29.3955 107.998 30.2243 108.707 30.9288C109.374 31.6333 110.209 32.172 111.126 32.5865C112.043 33.0009 113.044 33.1666 114.087 33.1666C115.004 33.1666 115.838 33.0423 116.547 32.7937C117.298 32.545 117.924 32.2135 118.507 31.7576C119.05 31.3432 119.55 30.8459 119.967 30.2657C120.384 29.6855 120.718 29.1054 120.968 28.4423H117.632C117.381 28.7738 116.964 29.1468 116.422 29.5612C115.88 29.9756 115.088 30.1828 114.129 30.1828C113.586 30.1828 113.044 30.1 112.544 29.8928C112.043 29.6855 111.585 29.4369 111.251 29.1054C110.876 28.7738 110.584 28.3594 110.334 27.945C110.083 27.4892 109.958 27.0333 109.917 26.536H121.176C121.218 26.4117 121.218 26.2873 121.26 26.1216C121.26 25.9973 121.302 25.8315 121.343 25.6657C121.343 25.5 121.385 25.2928 121.385 25.127C121.385 23.9252 121.176 22.8477 120.801 21.8946C120.259 20.9414 119.717 20.0711 119.091 19.3666ZM109.791 23.9252C110 22.7648 110.459 21.8531 111.168 21.1486C111.877 20.4441 112.794 20.0711 113.837 20.0711C115.088 20.0711 116.089 20.4441 116.839 21.1486C117.59 21.8531 118.049 22.8063 118.257 23.9252H109.791Z" fill="white"/>
	<path d="M132.395 24.754C131.769 24.4225 131.102 24.1738 130.393 24.0081C129.684 23.8423 129.017 23.6765 128.391 23.5108C127.765 23.345 127.265 23.1378 126.806 22.8891C126.389 22.6405 126.181 22.309 126.181 21.8117C126.181 21.3558 126.389 20.9414 126.806 20.6099C127.223 20.2369 127.849 20.0711 128.641 20.0711C129.434 20.0711 130.059 20.2783 130.476 20.6513C130.893 21.0243 131.185 21.4801 131.269 22.0189H134.438C134.355 20.527 133.812 19.3252 132.853 18.4549C131.894 17.5846 130.476 17.1288 128.641 17.1288C127.807 17.1288 127.057 17.2531 126.348 17.5018C125.68 17.7504 125.096 18.0819 124.638 18.5378C124.179 18.9522 123.804 19.4909 123.553 20.0297C123.303 20.6099 123.178 21.2315 123.178 21.8531C123.178 22.8063 123.387 23.5108 123.804 24.0495C124.221 24.5882 124.763 25.0441 125.388 25.3756C126.014 25.7072 126.681 25.9558 127.39 26.1216C128.099 26.2873 128.808 26.4531 129.434 26.6189C130.059 26.7846 130.56 26.9919 131.018 27.2405C131.435 27.4891 131.644 27.8207 131.644 28.318C131.644 28.8567 131.435 29.3126 130.977 29.6855C130.518 30.0585 129.809 30.2243 128.85 30.2243C127.974 30.2243 127.265 30.0171 126.848 29.6027C126.389 29.1883 126.139 28.6495 126.056 27.945H122.886C122.97 29.6027 123.512 30.9288 124.471 31.8405C125.43 32.7522 126.89 33.2081 128.85 33.2081C130.685 33.2081 132.144 32.7522 133.145 31.7991C134.146 30.8873 134.646 29.727 134.646 28.318C134.646 27.3648 134.438 26.6603 134.021 26.0801C133.52 25.5414 133.02 25.0855 132.395 24.754Z" fill="white"/>
	<path d="M140.652 21.4801C141.069 21.0243 141.527 20.6928 142.07 20.4441C142.612 20.1955 143.154 20.0711 143.696 20.0711C144.697 20.0711 145.489 20.3612 146.073 20.9C146.699 21.4387 147.116 22.1432 147.366 23.0549H150.702C150.494 22.2261 150.202 21.4387 149.826 20.7342C149.451 20.0297 148.909 19.3666 148.325 18.8279C147.741 18.2891 147.032 17.8747 146.24 17.5846C145.448 17.2946 144.613 17.1288 143.696 17.1288C142.653 17.1288 141.653 17.336 140.735 17.709C139.818 18.1234 139.025 18.6621 138.316 19.3666C137.607 20.0711 137.107 20.9414 136.69 21.8946C136.315 22.8891 136.106 23.9666 136.106 25.127C136.106 26.3288 136.315 27.4063 136.69 28.4009C137.065 29.3955 137.607 30.2243 138.316 30.9288C139.025 31.6333 139.818 32.172 140.735 32.5865C141.653 33.0009 142.653 33.1666 143.696 33.1666C144.613 33.1666 145.448 33.0009 146.24 32.7108C147.032 32.4207 147.741 32.0063 148.325 31.4675C148.951 30.9288 149.451 30.3072 149.826 29.5612C150.243 28.8567 150.535 28.0693 150.702 27.1991H147.366C147.116 28.0693 146.699 28.8153 146.073 29.354C145.448 29.8928 144.655 30.1828 143.696 30.1828C143.154 30.1828 142.57 30.0585 142.07 29.8099C141.527 29.5612 141.069 29.2297 140.652 28.7738C140.235 28.318 139.943 27.7792 139.693 27.1576C139.442 26.536 139.317 25.8729 139.317 25.127C139.317 24.381 139.442 23.718 139.693 23.0964C139.943 22.4747 140.276 21.936 140.652 21.4801Z" fill="white"/>
	<path d="M164.965 19.3666C164.297 18.6621 163.505 18.0819 162.629 17.709C161.712 17.2946 160.753 17.1288 159.752 17.1288C158.751 17.1288 157.792 17.336 156.874 17.709C155.957 18.1234 155.206 18.6621 154.539 19.3666C153.872 20.0711 153.329 20.9414 152.954 21.8946C152.579 22.8891 152.37 23.9666 152.37 25.127C152.37 26.3288 152.579 27.4063 152.954 28.4009C153.329 29.3955 153.872 30.2243 154.58 30.9288C155.248 31.6333 156.082 32.172 156.999 32.5865C157.917 33.0009 158.918 33.1666 159.96 33.1666C160.878 33.1666 161.712 33.0423 162.462 32.7937C163.213 32.545 163.839 32.2135 164.422 31.7576C164.965 31.3432 165.465 30.8459 165.882 30.2657C166.299 29.6855 166.633 29.1054 166.883 28.4423H163.547C163.296 28.7738 162.879 29.1468 162.337 29.5612C161.795 29.9756 161.003 30.1828 160.044 30.1828C159.501 30.1828 158.959 30.1 158.459 29.8928C157.958 29.6855 157.541 29.4369 157.166 29.1054C156.791 28.7738 156.499 28.3594 156.249 27.945C155.998 27.4892 155.873 27.0333 155.832 26.536H167.091C167.091 26.4117 167.133 26.2873 167.175 26.1216C167.217 25.9973 167.217 25.8315 167.258 25.6657C167.258 25.5 167.3 25.2928 167.3 25.127C167.3 23.9252 167.091 22.8477 166.716 21.8946C166.132 20.9414 165.632 20.0711 164.965 19.3666ZM155.665 23.9252C155.873 22.7648 156.332 21.8531 157.041 21.1486C157.75 20.4441 158.667 20.0711 159.71 20.0711C160.961 20.0711 161.962 20.4441 162.713 21.1486C163.463 21.8531 163.922 22.8063 164.13 23.9252H155.665Z" fill="white"/>
	<path d="M181.604 19.0351C181.02 18.4549 180.353 17.9576 179.602 17.6261C178.81 17.2945 178.018 17.1288 177.142 17.1288C176.349 17.1288 175.641 17.2117 175.098 17.4189C174.515 17.6261 174.056 17.7918 173.68 17.999C173.263 18.2477 172.888 18.5378 172.596 18.8693C172.263 18.1648 171.679 17.6261 171.011 17.2945C170.594 17.0873 170.136 16.963 169.635 16.963V17.2945V33.0423H172.805V23.9252C172.805 23.3864 172.888 22.8891 173.097 22.4333C173.305 21.9774 173.555 21.563 173.931 21.2315C174.264 20.9 174.681 20.6099 175.14 20.4027C175.599 20.1954 176.099 20.0711 176.641 20.0711C177.142 20.0711 177.601 20.1954 178.059 20.4027C178.518 20.6099 178.893 20.9 179.227 21.2315C179.561 21.6045 179.853 21.9774 180.061 22.4747C180.27 22.9306 180.353 23.4279 180.353 23.9252V33.0009H183.522V23.9252C183.522 22.9306 183.356 21.9774 183.022 21.1486C182.647 20.3198 182.188 19.6153 181.604 19.0351Z" fill="white"/>
	<path d="M200.871 10.9954H197.701V18.8692C197.41 18.5377 197.034 18.2476 196.617 17.999C196.242 17.7918 195.783 17.5846 195.241 17.4188C194.699 17.253 194.073 17.1287 193.281 17.1287C192.238 17.1287 191.237 17.3359 190.32 17.7089C189.403 18.0819 188.61 18.662 187.901 19.3665C187.192 20.071 186.65 20.9413 186.275 21.8945C185.899 22.8891 185.691 23.9665 185.691 25.1269C185.691 26.3287 185.899 27.4062 186.275 28.4008C186.65 29.3954 187.192 30.2242 187.901 30.9287C188.61 31.6332 189.403 32.172 190.32 32.5864C191.237 33.0008 192.238 33.1665 193.281 33.1665C194.073 33.1665 194.782 33.0837 195.324 32.9179C195.908 32.7521 196.367 32.5449 196.742 32.2963C197.159 32.0476 197.493 31.7575 197.827 31.426C198.494 32.3377 199.578 32.9593 200.787 33.0008V25.5413V10.9954H200.871ZM196.659 28.8152C196.242 29.2711 195.741 29.6026 195.199 29.8512C194.657 30.0999 194.073 30.2242 193.448 30.2242C192.864 30.2242 192.28 30.0999 191.696 29.8512C191.154 29.6026 190.654 29.2711 190.237 28.8152C189.82 28.3593 189.486 27.8206 189.236 27.199C188.986 26.5774 188.86 25.9143 188.86 25.1683C188.86 24.4224 188.986 23.7593 189.236 23.1377C189.486 22.5161 189.82 21.9774 190.237 21.5215C190.654 21.0656 191.154 20.7341 191.696 20.4855C192.238 20.2368 192.822 20.1125 193.448 20.1125C194.073 20.1125 194.615 20.2368 195.199 20.4855C195.741 20.7341 196.242 21.0656 196.659 21.5215C197.076 21.9774 197.41 22.5161 197.66 23.1377C197.91 23.7593 198.035 24.4224 198.035 25.1683C198.035 25.9143 197.91 26.6188 197.66 27.199C197.41 27.8206 197.076 28.3593 196.659 28.8152Z" fill="white"/>
	<path d="M216.426 19.3666C215.717 18.6621 214.925 18.0819 214.007 17.709C213.09 17.2946 212.089 17.1288 211.046 17.1288C210.004 17.1288 209.003 17.336 208.085 17.709C207.168 18.1234 206.376 18.6621 205.667 19.3666C204.958 20.0711 204.416 20.9414 204.04 21.8946C203.665 22.8891 203.456 23.9666 203.456 25.127C203.456 26.3288 203.665 27.4063 204.04 28.4009C204.416 29.3955 204.958 30.2243 205.667 30.9288C206.376 31.6333 207.168 32.172 208.085 32.5865C209.003 33.0009 210.004 33.1666 211.046 33.1666C212.089 33.1666 213.09 32.9594 214.007 32.5865C214.925 32.2135 215.717 31.6333 216.426 30.9288C217.135 30.2243 217.635 29.354 218.052 28.4009C218.428 27.4063 218.636 26.3288 218.636 25.1684C218.636 23.9666 218.428 22.8891 218.052 21.936C217.635 20.9414 217.093 20.0711 216.426 19.3666ZM215.092 27.1991C214.841 27.8207 214.508 28.3594 214.132 28.8153C213.715 29.2711 213.257 29.6027 212.714 29.8513C212.172 30.1 211.63 30.2243 211.088 30.2243C210.546 30.2243 209.962 30.1 209.42 29.8513C208.878 29.6027 208.419 29.2711 208.002 28.8153C207.585 28.3594 207.293 27.8207 207.043 27.1991C206.793 26.5774 206.668 25.9144 206.668 25.1684C206.668 24.4225 206.793 23.7594 207.043 23.1378C207.293 22.5162 207.627 21.9774 208.002 21.5216C208.419 21.0657 208.878 20.7342 209.42 20.4855C209.962 20.2369 210.504 20.1126 211.088 20.1126C211.63 20.1126 212.214 20.2369 212.714 20.4855C213.257 20.7342 213.715 21.0657 214.132 21.5216C214.549 21.9774 214.841 22.5162 215.092 23.1378C215.342 23.7594 215.467 24.4225 215.467 25.1684C215.467 25.9144 215.342 26.5774 215.092 27.1991Z" fill="white"/>
	<path d="M231.439 10.9954H228.27V33.0008H231.439V10.9954Z" fill="white"/>
	<path d="M247.286 22.7233C247.286 21.9359 247.119 21.19 246.828 20.5269C246.536 19.8639 246.119 19.2422 245.576 18.7449C245.034 18.2476 244.409 17.8332 243.616 17.5431C242.866 17.253 242.032 17.0873 241.114 17.0873C239.154 17.0873 237.653 17.5431 236.569 18.4963C235.484 19.4494 234.9 20.6098 234.817 21.9774H237.987C238.07 21.4386 238.362 20.9828 238.862 20.6098C239.363 20.2368 240.113 20.0296 241.156 20.0296C242.157 20.0296 242.866 20.2783 243.408 20.7341C243.908 21.2314 244.159 21.853 244.159 22.6404V23.2206C242.199 23.2206 240.614 23.3449 239.321 23.5936C238.07 23.8422 237.069 24.2152 236.318 24.6711C235.568 25.1269 235.067 25.6657 234.734 26.2873C234.442 26.9089 234.275 27.6549 234.275 28.4422C234.275 29.8513 234.734 30.9702 235.693 31.8404C236.61 32.7107 237.986 33.1666 239.738 33.1666C240.53 33.1666 241.239 33.0837 241.781 32.9179C242.365 32.7522 242.824 32.5449 243.199 32.2963C243.616 32.0477 243.992 31.7576 244.284 31.426C244.951 32.3377 246.035 32.9594 247.286 33.0008V29.8927V22.7233ZM242.991 29.354C242.24 30.017 241.239 30.39 239.863 30.39C239.071 30.39 238.445 30.2242 238.028 29.8513C237.611 29.4783 237.403 29.1053 237.403 28.6494C237.403 28.235 237.486 27.9035 237.653 27.572C237.82 27.2404 238.153 26.9918 238.654 26.7431C239.154 26.5359 239.821 26.3287 240.697 26.2044C241.573 26.0801 242.699 25.9972 244.117 25.9972V26.8675C244.075 27.8621 243.742 28.6909 242.991 29.354Z" fill="white"/>
	<path d="M265.135 21.8945C264.76 20.8999 264.218 20.071 263.509 19.3665C262.8 18.662 262.007 18.0819 261.09 17.7089C260.173 17.2945 259.172 17.1287 258.129 17.1287C257.378 17.1287 256.753 17.2116 256.211 17.4188C255.669 17.626 255.21 17.7918 254.835 17.999C254.417 18.2476 254.042 18.5377 253.75 18.8692V10.9954H250.581V33.0008C251.79 33.0008 252.874 32.3792 253.542 31.4674C253.542 31.4674 253.542 31.4675 253.583 31.426C253.875 31.7575 254.251 32.0476 254.668 32.2963C255.043 32.5449 255.502 32.7521 256.086 32.9179C256.669 33.0837 257.337 33.1665 258.129 33.1665C259.172 33.1665 260.173 32.9593 261.09 32.5864C262.007 32.2134 262.8 31.6332 263.509 30.9287C264.218 30.2242 264.76 29.3539 265.135 28.4008C265.511 27.4062 265.719 26.3287 265.719 25.1683C265.719 23.9665 265.511 22.8891 265.135 21.8945ZM262.174 27.199C261.924 27.8206 261.59 28.3593 261.173 28.8152C260.756 29.2711 260.256 29.6026 259.714 29.8512C259.172 30.0999 258.588 30.2242 257.962 30.2242C257.337 30.2242 256.795 30.0999 256.211 29.8512C255.669 29.6026 255.168 29.2711 254.751 28.8152C254.334 28.3593 254 27.8206 253.75 27.199C253.5 26.5774 253.375 25.9143 253.375 25.1683C253.375 24.4224 253.5 23.7593 253.75 23.1377C254 22.5161 254.334 21.9774 254.751 21.5215C255.168 21.0656 255.669 20.7341 256.211 20.4855C256.753 20.2368 257.337 20.1125 257.962 20.1125C258.546 20.1125 259.13 20.2368 259.714 20.4855C260.256 20.7341 260.756 21.0656 261.173 21.5215C261.59 21.9774 261.924 22.5161 262.174 23.1377C262.424 23.7593 262.55 24.4224 262.55 25.1683C262.55 25.9143 262.424 26.5774 262.174 27.199Z" fill="white"/>
	<path d="M36.7404 2.04407C36.7404 2.12695 36.7404 2.20983 36.7404 2.29272C36.9072 7.14137 41.5779 14.3107 51.7951 14.3107C56.174 14.3107 59.677 12.9846 62.2209 10.9954C65.2235 8.63326 66.8082 5.31794 66.8082 2.04407H36.7404Z" fill="white"/>
	<path d="M41.5362 21.7288C40.9106 20.3198 40.0766 18.8279 39.0757 17.0873C39.0757 17.0873 39.0757 17.0459 39.034 17.0459C39.034 17.0044 38.9923 16.963 38.9506 16.8801C38.7421 16.5486 38.3251 15.8855 37.9497 15.3053C37.8246 15.1396 37.7412 14.9738 37.6578 14.808C37.491 14.5179 37.3659 14.2693 37.1991 13.9792C37.1574 13.8549 37.074 13.772 36.9906 13.6477C36.9488 13.5648 36.8654 13.4405 36.8237 13.3576C36.6569 13.0675 36.4901 12.736 36.2816 12.4459C35.9063 11.7414 35.6144 11.1197 35.3641 10.4981C32.9037 4.61344 34.7803 2.20983 34.9054 2.08551L34.8637 2.04407C34.1965 1.50533 33.4458 1.09091 32.6534 0.717938C32.3198 0.552172 31.9445 0.427848 31.5692 0.344965C30.4432 0.0134331 29.2755 -0.0694498 28.1495 0.0548746C27.8993 0.0963161 27.6491 0.137758 27.3572 0.179199C26.6065 0.303523 25.8558 0.552172 25.1469 0.883704C24.8967 1.00803 24.6882 1.13235 24.4379 1.25668C23.7707 1.62965 23.1452 2.12695 22.5613 2.66569C21.769 3.45308 21.1434 4.40623 20.6847 5.44227C20.5596 5.69092 20.4762 5.98101 20.3928 6.22965C20.2676 6.64407 20.1425 7.05848 20.0591 7.4729C19.9757 7.88731 19.934 8.34317 19.934 8.75758V8.88191C19.934 9.172 19.934 9.46209 19.9757 9.75218C20.0174 10.0423 20.0591 10.3324 20.1008 10.581C20.1008 10.6639 20.1008 10.7053 20.1425 10.7882C20.1842 10.9954 20.2259 11.1612 20.2676 11.3684C20.3928 11.9071 20.5596 12.4459 20.7681 12.9432C20.8515 13.1918 20.9766 13.4819 21.1017 13.7306C21.3936 14.3522 21.7273 14.9738 22.0609 15.554C22.4362 16.217 22.8532 16.8387 23.2703 17.4603C23.4788 17.7504 23.6873 18.0405 23.8958 18.3306C24.7299 19.4909 25.6473 20.6513 26.4397 21.8116C27.0652 22.6819 27.6491 23.5522 28.1495 24.4225C28.1912 24.5053 28.2329 24.5882 28.3163 24.6711C28.4831 24.9198 28.6082 25.1684 28.7334 25.4585C28.9002 25.8315 29.067 26.163 29.1921 26.5774C29.2755 26.7432 29.3172 26.8675 29.3589 27.0333C29.484 27.3234 29.5674 27.6549 29.6508 27.945C29.7759 28.4008 29.8593 28.8981 29.9427 29.3954C29.9427 29.5612 29.9844 29.727 29.9844 29.8927C29.9844 30.0585 29.9844 30.2243 29.9844 30.39C29.9844 30.5144 29.9844 30.6387 29.9844 30.7216C29.9844 30.8459 29.9844 30.9702 29.9427 31.0531C29.901 32.3792 29.6508 33.7053 29.1921 34.9072C28.9836 35.5288 28.6917 36.109 28.3997 36.6477C28.0661 37.1864 27.7325 37.7252 27.3155 38.2225C27.2738 38.2639 27.232 38.3468 27.1486 38.4297C28.3997 38.8027 29.7342 38.9684 31.1104 38.927C32.57 38.8855 33.9045 38.554 35.1973 38.0567C38.7004 36.6477 41.3277 33.6639 42.3285 30.0585C42.5371 29.3126 42.6622 28.4837 42.7039 27.6963C42.7456 27.4891 42.7456 27.2819 42.7456 27.0747C42.7456 25.2099 42.3285 23.5107 41.5362 21.7288ZM29.5257 7.59722C28.65 7.59722 27.941 6.93416 27.9827 6.06389C27.9827 5.23506 28.65 4.53055 29.5257 4.53055C30.3598 4.53055 31.0687 5.19362 31.0687 6.06389C31.1104 6.89272 30.4015 7.59722 29.5257 7.59722Z" fill="white"/>
	<path d="M26.7733 30.2243C26.7733 30.0999 26.7733 29.9756 26.7316 29.8513C26.7316 29.7684 26.7316 29.6855 26.6899 29.6441C26.6899 29.5198 26.6482 29.4369 26.6482 29.3126C26.6482 29.2297 26.6065 29.1468 26.6065 29.0639C26.6065 28.981 26.5648 28.8567 26.5648 28.7738C26.5648 28.6909 26.5231 28.608 26.5231 28.5252C26.4814 28.4423 26.4814 28.318 26.4397 28.2351C26.4397 28.1522 26.398 28.0693 26.3563 27.9864C26.3146 27.9035 26.3146 27.8207 26.2729 27.7378C26.2312 27.6549 26.2312 27.572 26.1895 27.4891C26.1478 27.4062 26.1478 27.3234 26.1061 27.2405C26.0644 27.1576 26.0644 27.0747 26.0227 26.9918C25.981 26.9089 25.981 26.8261 25.9393 26.7432C25.8976 26.6603 25.8559 26.5774 25.8142 26.4945C25.7725 26.4117 25.7308 26.3288 25.7308 26.2873C25.6891 26.2044 25.6474 26.1216 25.6056 26.0387C25.5639 25.9558 25.5222 25.9144 25.4805 25.8315C25.4388 25.7486 25.3971 25.6657 25.3554 25.5828C25.3137 25.4999 25.272 25.4585 25.2303 25.3756C25.1886 25.2927 25.1469 25.2098 25.0635 25.127C25.0218 25.0855 24.9801 25.0026 24.9384 24.9612C24.8967 24.8783 24.8133 24.7954 24.7716 24.7125C24.7299 24.6711 24.6882 24.5882 24.6465 24.5468C24.5631 24.4639 24.5214 24.381 24.438 24.2981C24.3963 24.2567 24.3546 24.2153 24.3546 24.1738C24.2712 24.0909 24.2294 24.008 24.146 23.8837C24.1043 23.8423 24.1043 23.8008 24.0626 23.8008C23.9792 23.718 23.8958 23.5936 23.8124 23.5107L23.7707 23.4693C22.7698 22.3918 21.5188 21.5216 20.1426 20.8999C19.9757 20.8171 19.8506 20.7756 19.6838 20.6927C19.517 20.6513 19.3919 20.5684 19.2251 20.527C19.2251 20.527 19.2251 20.527 19.1834 20.527C19.0166 20.4855 18.8915 20.4441 18.7247 20.4026C18.7247 20.4026 18.7247 20.4026 18.6829 20.4026C18.5161 20.3612 18.3493 20.3198 18.2242 20.2783C18.2242 20.2783 18.2242 20.2783 18.1825 20.2783C18.0157 20.2369 17.8489 20.1954 17.6821 20.1954C17.6821 20.1954 17.6821 20.1954 17.6404 20.1954C17.4736 20.154 17.3067 20.154 17.1399 20.1125C16.9731 20.0711 16.8063 20.0711 16.6395 20.0711C16.6395 20.0711 16.6395 20.0711 16.5978 20.0711C16.4727 20.0711 16.3059 20.0297 16.1808 20.0297C16.0974 20.0297 15.9723 20.0297 15.8888 20.0297C15.8471 20.0297 15.8054 20.0297 15.8054 20.0297C15.7637 20.0297 15.7637 20.0297 15.722 20.0297H15.6803H12.5943H12.5526H12.5109H12.4692C12.2607 20.0297 12.0522 20.0297 11.802 20.0711C11.6768 20.0711 11.5517 20.0711 11.4266 20.1125C11.3015 20.1125 11.2181 20.154 11.093 20.154C10.8428 20.1954 10.5926 20.2369 10.3423 20.2783C10.3423 20.2783 10.3423 20.2783 10.3006 20.2783C10.0504 20.3198 9.80021 20.3612 9.54999 20.4441C9.54999 20.4441 9.54999 20.4441 9.50829 20.4441C8.04868 20.8171 6.67248 21.3972 5.46309 22.2261C5.42139 22.2261 5.42139 22.2675 5.37969 22.2675C5.21288 22.3918 5.08777 22.4747 4.92096 22.599C4.83755 22.6405 4.79585 22.6819 4.71244 22.7234C4.58733 22.8062 4.46222 22.9306 4.33711 23.0134C4.25371 23.0963 4.1703 23.1378 4.08689 23.2207C3.96179 23.3035 3.87838 23.4279 3.75327 23.5107C3.66986 23.5936 3.58646 23.6765 3.50305 23.7594C3.41965 23.8423 3.29454 23.9666 3.21113 24.0495C3.12773 24.1324 3.04432 24.2567 2.96091 24.3396C2.87751 24.4225 2.7941 24.5468 2.7107 24.6297C2.62729 24.754 2.54388 24.8783 2.41877 24.9612C2.33537 25.0441 2.29367 25.127 2.21026 25.2098C2.12685 25.3342 2.00174 25.4999 1.91834 25.6243C2.08515 25.7071 2.04345 25.79 2.00174 25.8729C1.87664 26.0801 1.70982 26.3288 1.58471 26.536C1.45961 26.7432 1.3345 26.9918 1.25109 27.199C0.458733 28.8567 0.041703 30.6801 0.041703 32.5864V32.6279C0.041703 32.6279 0.041703 32.6693 0.041703 32.7108V32.9594V33.6225C0.041703 33.7468 0.041703 33.8297 0.041703 33.954V34.0783C0.041703 34.2026 0.041703 34.2855 0.041703 34.4099V34.5342C0.041703 34.6171 0.041703 34.6999 0.041703 34.7828V35.3216C0.041703 35.4044 0.041703 35.4873 0.041703 35.6117V35.8603C0.041703 35.9017 0.041703 35.9432 0.041703 35.9846V36.3162C0.041703 36.3576 0.041703 36.399 0.041703 36.4405V36.772C0.041703 37.0207 0.041703 37.2693 0.041703 37.4351C0.041703 37.518 0.041703 37.6008 0.041703 37.6423V37.7252C0 37.6837 0 37.7252 0 37.7252C0 37.7252 0 37.6837 0.041703 37.6837L0 43.1954C0 43.3612 0.041703 43.527 0.125109 43.6099C0.208515 43.6927 0.333624 43.8171 0.458733 43.9C0.542139 43.9414 0.583842 43.9414 0.667248 43.9828C0.792357 44.0243 0.959169 43.9828 1.08428 43.9414C1.16768 43.9 1.20939 43.8585 1.29279 43.8171L3.16943 42.4081C3.37794 42.2423 3.62816 42.118 3.87838 42.0351C4.1286 41.9522 4.42052 41.9108 4.67074 41.9108H15.7637C18.4327 41.9108 20.8515 40.9576 22.7698 39.4243C23.0618 39.2171 23.312 38.9684 23.5622 38.7198C23.8124 38.4711 24.0626 38.2225 24.2712 37.9324C24.4797 37.6423 24.6882 37.3936 24.8967 37.1035C24.9801 36.9378 25.1052 36.8135 25.1886 36.6477C25.3554 36.3576 25.5222 36.0261 25.6891 35.736C26.0644 34.9486 26.3563 34.0783 26.5648 33.2081C26.6482 32.8351 26.6899 32.5035 26.7316 32.1306C26.7733 31.7576 26.7733 31.3846 26.7733 31.0117C26.7733 30.8459 26.7733 30.6387 26.7733 30.4729C26.7733 30.3486 26.7733 30.3071 26.7733 30.2243Z" fill="white"/>
</svg>
