<svg width="177" height="56" viewBox="0 0 177 56" fill="none" xmlns="http://www.w3.org/2000/svg">
<g id="Crescendo Logo_06_Full color_Horizontal logo">
<g id="Group">
<g id="Crescendo_lab_x5F_Logo">
<g id="Group_2">
<path id="Vector" d="M28.0737 15.4293C28.0737 15.4802 28.0737 15.531 28.0737 15.5819C28.1761 18.6585 31.1462 23.2098 37.6497 23.2098C40.415 23.2098 42.6681 22.3708 44.2812 21.0994C46.1759 19.5993 47.2001 17.4889 47.2001 15.4293H28.0737Z" fill="#4586F0"/>
<path id="Vector_2" d="M30.3012 24.8879C30.25 24.8116 29.7123 23.9216 29.4051 23.4385C29.2771 23.2097 29.1234 22.9554 28.9954 22.7012C28.8418 22.4469 28.7138 22.1926 28.5601 21.9129C26.1789 17.2853 27.5872 15.4292 27.6896 15.3275C27.664 15.3275 27.664 15.302 27.664 15.302C27.2287 14.9715 26.7678 14.6918 26.2558 14.463C25.3596 14.0816 24.361 13.929 23.3881 14.0307C22.0823 14.1579 20.8021 14.7427 19.8547 15.6834C19.3426 16.192 18.933 16.8022 18.6513 17.4379C18.3697 18.099 18.1904 18.8363 18.1904 19.5737V19.65C18.1904 20.0314 18.216 20.3874 18.2928 20.7433C18.3185 20.9213 18.3441 21.0739 18.3953 21.2264C18.7281 22.5995 19.4706 23.8708 20.3156 25.1167C21.3398 26.6169 22.5688 28.0662 23.4393 29.5663C23.6953 29.9732 23.9258 30.4308 24.105 30.9139C24.4123 31.7022 24.6171 32.4904 24.6171 33.3295C24.6171 33.482 24.6171 33.6346 24.5915 33.7617C24.5403 35.4653 23.9258 37.0672 22.9272 38.3385C22.9016 38.3639 22.876 38.4148 22.8248 38.4656C23.6185 38.6945 24.4635 38.8216 25.334 38.7707C26.2558 38.7453 27.1263 38.5419 27.92 38.2114C30.1476 37.3214 31.8119 35.4399 32.452 33.1261C32.58 32.6429 32.6824 32.1344 32.708 31.6259C32.7336 31.4988 32.7336 31.3716 32.7336 31.2445C32.7336 29.9986 32.452 28.9052 31.9655 27.761C31.479 26.922 30.9413 25.9812 30.3012 24.8879Z" fill="#1F49A3"/>
<path id="Vector_3" d="M16.8076 26.7695C16.782 26.7695 16.782 26.7695 16.7564 26.7695C16.6796 26.7695 16.5772 26.7695 16.5004 26.7441C16.4492 26.7441 16.3724 26.7441 16.3212 26.7441C16.2956 26.7441 16.2443 26.7441 16.2187 26.7441H16.1931H14.2472H14.2216C14.196 26.7441 14.196 26.7441 14.1704 26.7441C14.0424 26.7441 13.8888 26.7441 13.7607 26.7695C13.6839 26.7695 13.6071 26.7695 13.5303 26.7949C13.4535 26.7949 13.3767 26.8204 13.3255 26.8204C10.6882 27.1255 8.43506 28.7019 7.20605 30.914C6.56595 32.0582 6.20749 33.355 6.20749 34.7534L6.18188 38.008C6.18188 38.008 6.18188 37.9826 6.20749 37.9826L6.18188 41.4915C6.18188 41.8983 6.66837 42.1526 7.00122 41.8983L8.20462 41.0084C8.48627 40.805 8.81912 40.6778 9.17758 40.6778H16.2443C18.1647 40.6778 19.9314 39.8896 21.186 38.6437C22.4406 37.3724 23.2343 35.6434 23.2343 33.711C23.2087 30.0495 20.3922 27.0746 16.8076 26.7695Z" fill="#4586F0"/>
<path id="Vector_4" d="M22.7479 38.5165C22.7735 38.491 22.7991 38.4402 22.8503 38.3893C23.8745 37.118 24.4634 35.5416 24.5146 33.8126C24.5146 33.66 24.5402 33.5074 24.5402 33.3803C24.5402 32.5412 24.361 31.7276 24.0281 30.9648C23.8489 30.4817 23.6184 30.024 23.3624 29.6172C22.4918 28.117 21.2885 26.6677 20.2387 25.1675C19.3937 23.9471 18.6512 22.6503 18.3184 21.2773C18.2928 21.0993 18.2415 20.9467 18.2159 20.7942C18.1647 20.4382 18.1135 20.0822 18.1135 19.7008V19.6246C18.1135 18.9126 18.2928 18.1498 18.5744 17.4887C18.856 16.8276 19.2657 16.2428 19.7778 15.7343C20.7252 14.7935 22.0054 14.2087 23.3112 14.0816C24.2841 13.9799 25.2827 14.107 26.1789 14.5138C26.6909 14.7172 27.1518 15.0224 27.5871 15.3529L27.6127 15.3783C27.5359 15.48 26.102 17.3362 28.4832 21.9638C28.6369 22.2181 28.7905 22.4978 28.9185 22.752C29.0721 23.0063 29.2002 23.2351 29.3282 23.4894C29.6354 23.9725 30.1731 24.8624 30.2243 24.9133C28.8673 25.1167 27.4847 25.1421 26.1277 24.9641C25.4619 24.8624 24.7962 24.7353 24.1561 24.5319C24.0793 24.5065 23.9769 24.481 23.9001 24.4556C23.6952 24.3793 23.516 24.303 23.3112 24.2268C23.26 24.2013 23.2344 24.1759 23.1832 24.1759C23.0551 24.0996 22.9271 24.0488 22.8247 23.9725C33.5273 31.8801 27.1006 38.0079 22.7479 38.5165Z" fill="#1F49A3"/>
<path id="Vector_5" d="M30.3012 24.8624C28.9442 25.0658 27.5615 25.0913 26.2045 24.9133C25.5388 24.8116 24.8731 24.6844 24.233 24.481C24.1562 24.4556 24.0538 24.4302 23.9769 24.4047C23.7721 24.3285 23.5929 24.2522 23.388 24.1759C23.3368 24.1505 23.3112 24.1251 23.26 24.1251C23.132 24.0488 23.004 23.9979 22.9016 23.9216C21.3397 22.9809 20.2643 21.3027 20.1875 19.3449C20.0851 17.0565 21.3909 15.0478 23.3112 14.0816C24.2842 13.9799 25.2828 14.107 26.1789 14.5138C26.691 14.7172 27.1519 15.0224 27.5871 15.3529L27.6127 15.3783C27.5359 15.48 26.1021 17.3362 28.4833 21.9638C28.6369 22.2181 28.7905 22.4978 28.9186 22.752C29.0722 23.0063 29.2002 23.2351 29.3282 23.4894C29.7123 23.9216 30.25 24.8116 30.3012 24.8624Z" fill="url(#paint0_linear_8240_106413)"/>
<path id="Vector_6" d="M31.8888 27.8118C31.4791 26.9219 30.967 25.9811 30.3013 24.8624C28.9443 25.0658 27.5616 25.0912 26.2046 24.9132C25.5389 24.8115 24.8732 24.6844 24.2331 24.481C24.1563 24.4555 24.0539 24.4301 23.9771 24.4047C23.7722 24.3284 23.593 24.2521 23.3882 24.1758C23.3369 24.1504 23.3113 24.125 23.2601 24.125C23.1321 24.0487 23.0041 23.9978 22.9017 23.9216C33.5018 31.9309 27.1008 38.0587 22.748 38.5418C23.5418 38.7707 24.3867 38.8978 25.2573 38.8469C26.179 38.8215 27.0496 38.6181 27.8433 38.2876C30.0709 37.3976 31.7351 35.5161 32.3752 33.2022C32.5033 32.7191 32.6057 32.2106 32.6313 31.7021C32.6569 31.575 32.6569 31.4478 32.6569 31.3207C32.6569 30.0494 32.3752 28.956 31.8888 27.8118Z" fill="url(#paint1_linear_8240_106413)"/>
<g id="Group_3">
<path id="Vector_7" d="M24.2587 18.8363C24.822 18.8363 25.2317 18.3787 25.2317 17.8701C25.2317 17.3108 24.7708 16.9039 24.2587 16.9039C23.6954 16.9039 23.2857 17.3616 23.2857 17.8701C23.2601 18.4041 23.6954 18.8363 24.2587 18.8363Z" fill="#F6F8F9"/>
</g>
<path id="Vector_8" d="M23.2089 33.711C23.2089 35.6434 22.4152 37.3724 21.1606 38.6437C19.906 39.915 18.1393 40.6778 16.219 40.6778H9.15219C8.79373 40.6778 8.46088 40.7795 8.17923 41.0084L6.97583 41.8983C6.64297 42.1526 6.15649 41.8983 6.15649 41.4915L6.2077 34.728C6.2077 30.3292 9.79229 26.7441 14.2474 26.7441H16.219C20.0852 26.7441 23.2089 29.8461 23.2089 33.711Z" fill="#4586F0"/>
<path id="Vector_9" d="M20.8019 30.1003C20.8019 32.9989 18.6768 35.7196 15.8859 36.5586C14.324 37.0417 12.6598 36.7366 11.0723 36.8637C10.2274 36.9146 9.38242 37.0417 8.56308 37.2451C8.15341 37.3469 7.74374 37.4486 7.35968 37.5757C7.23166 37.6265 6.18188 37.9062 6.18188 38.0079L6.20749 34.7533C6.20749 33.3549 6.56595 32.0581 7.20605 30.9139C8.56308 28.4476 11.2003 26.7694 14.2472 26.7694H16.2187C17.8574 26.7694 19.3681 27.3288 20.5715 28.2696C20.6995 28.829 20.8019 29.4392 20.8019 30.1003Z" fill="url(#paint2_linear_8240_106413)"/>
</g>
<g id="Group_4">
<path id="Vector_10" d="M63.1599 31.2648C62.9546 31.6205 62.6979 31.9254 62.3643 32.1795C62.0563 32.4335 61.6714 32.6622 61.2608 32.8147C60.8502 32.9671 60.3626 33.0433 59.8493 33.0433C59.2847 33.0433 58.7458 32.9163 58.2068 32.6622C57.6679 32.4081 57.206 32.0524 56.7953 31.6205C56.3847 31.1632 56.0511 30.6296 55.7945 30.0198C55.5378 29.4101 55.4095 28.7241 55.4095 28.0127C55.4095 27.2758 55.5378 26.6153 55.7945 26.0055C56.0511 25.3957 56.3847 24.8621 56.7953 24.4048C57.206 23.9475 57.6679 23.6172 58.2068 23.3631C58.7458 23.109 59.2847 22.982 59.8493 22.982C60.3369 22.982 60.7988 23.0582 61.1838 23.2107C61.5944 23.3631 61.928 23.5664 62.2616 23.8204C62.5696 24.0745 62.8262 24.3794 63.0315 24.7351C63.2369 25.0908 63.4165 25.4719 63.5192 25.853H65.6749C65.5209 25.2178 65.2643 24.6081 64.9306 24.0237C64.5714 23.4393 64.1607 22.9566 63.6731 22.5247C63.1855 22.0927 62.5953 21.7624 61.9537 21.5084C61.3121 21.2543 60.5935 21.1273 59.8493 21.1273C58.9767 21.1273 58.1555 21.3051 57.3599 21.6608C56.5644 22.0165 55.8971 22.4993 55.3069 23.109C54.7166 23.7188 54.2547 24.4556 53.8954 25.2941C53.5361 26.1325 53.3564 27.0218 53.3564 27.9873C53.3564 28.9527 53.5361 29.8674 53.8954 30.6804C54.2547 31.5189 54.7166 32.2303 55.3069 32.8655C55.8971 33.5007 56.59 33.9834 57.3599 34.3137C58.1555 34.6694 58.9767 34.8472 59.8493 34.8472C60.6192 34.8472 61.3378 34.7202 62.005 34.4661C62.6723 34.2121 63.2369 33.8818 63.7501 33.4498C64.2634 33.0179 64.6997 32.5098 65.0333 31.9508C65.3669 31.3664 65.6235 30.7821 65.8032 30.1215H63.6475C63.5192 30.528 63.3652 30.9091 63.1599 31.2648Z" fill="#36393D"/>
<path id="Vector_11" d="M71.8083 25.0148C71.7313 25.0148 71.6287 24.9894 71.526 24.9894C71.1154 24.9894 70.7561 25.0402 70.4481 25.1672C70.1402 25.2943 69.8836 25.3959 69.6782 25.5229C69.4473 25.6754 69.242 25.8532 69.0623 26.0565V26.0311C68.857 25.6246 68.5234 25.2943 68.0871 25.091C67.8305 24.964 67.5482 24.8878 67.2402 24.8878V25.091V34.7458H69.1906V29.2832C69.1906 28.9783 69.242 28.6735 69.3703 28.394C69.4986 28.1145 69.6526 27.8604 69.8835 27.6318C70.0889 27.4031 70.3455 27.2506 70.6278 27.1236C70.9101 26.9966 71.218 26.9203 71.5517 26.9203C71.6287 26.9203 71.7056 26.9203 71.7826 26.9458C71.8596 26.9712 71.9366 26.9712 72.0136 26.9966C72.0906 26.9966 72.1676 27.022 72.2189 27.0474V25.1164C72.1676 25.1164 72.1163 25.091 72.0393 25.0656C71.9623 25.0402 71.8853 25.0148 71.8083 25.0148Z" fill="#36393D"/>
<path id="Vector_12" d="M80.5856 26.3865C80.1749 25.9546 79.6873 25.5989 79.1484 25.3702C78.5838 25.1162 77.9936 25.0145 77.3776 25.0145C76.7617 25.0145 76.1715 25.1416 75.6069 25.3702C75.0423 25.6243 74.5803 25.9546 74.1697 26.3865C73.7591 26.8184 73.4511 27.352 73.1945 27.9364C72.9635 28.5462 72.8352 29.2067 72.8352 29.9181C72.8352 30.655 72.9635 31.3156 73.1945 31.9253C73.4255 32.5351 73.7591 33.0433 74.1954 33.4752C74.606 33.9071 75.1192 34.2374 75.6838 34.4915C76.2484 34.7456 76.8644 34.8472 77.5059 34.8472C78.0705 34.8472 78.5838 34.771 79.0201 34.6185C79.482 34.4661 79.867 34.2628 80.2263 33.9833C80.5599 33.7293 80.8679 33.4244 81.1245 33.0687C81.3811 32.713 81.5864 32.3573 81.7404 31.9507H79.6873C79.5334 32.154 79.2767 32.3827 78.9431 32.6367C78.6095 32.8908 78.1219 33.0179 77.5316 33.0179C77.198 33.0179 76.8644 32.967 76.5564 32.84C76.2484 32.713 75.9661 32.5605 75.7608 32.3573C75.5299 32.154 75.3502 31.8999 75.1962 31.6458C75.0423 31.3664 74.9653 31.0869 74.9396 30.782H81.8687C81.8944 30.7058 81.8944 30.6296 81.9201 30.5279C81.9201 30.4517 81.9457 30.3501 81.9714 30.2484C81.9714 30.1468 81.997 30.0198 81.997 29.9181C81.997 29.1813 81.8687 28.5207 81.6378 27.9364C81.3298 27.3266 80.9962 26.8184 80.5856 26.3865ZM74.8883 29.1813C75.0166 28.4699 75.2989 27.911 75.7352 27.479C76.1715 27.0471 76.736 26.8184 77.3776 26.8184C78.1475 26.8184 78.7635 27.0471 79.2254 27.479C79.6873 27.911 79.9696 28.4953 80.0979 29.1813H74.8883Z" fill="#36393D"/>
<path id="Vector_13" d="M88.7722 29.6895C88.3872 29.4862 87.9766 29.3338 87.5403 29.2322C87.1041 29.1305 86.6934 29.0289 86.3085 28.9273C85.9235 28.8256 85.6156 28.6986 85.3333 28.5462C85.0767 28.3937 84.9483 28.1904 84.9483 27.8856C84.9483 27.6061 85.0767 27.352 85.3333 27.1487C85.5899 26.9201 85.9749 26.8184 86.4625 26.8184C86.9501 26.8184 87.335 26.9455 87.5917 27.1742C87.8483 27.4028 88.0279 27.6823 88.0793 28.0126H90.0297C89.9784 27.0979 89.6447 26.3611 89.0545 25.8276C88.4642 25.294 87.5917 25.0145 86.4625 25.0145C85.9492 25.0145 85.4873 25.0907 85.051 25.2432C84.6404 25.3956 84.2811 25.5989 83.9988 25.8784C83.7165 26.1325 83.4855 26.4627 83.3315 26.793C83.1776 27.1487 83.1006 27.5299 83.1006 27.911C83.1006 28.4953 83.2289 28.9273 83.4855 29.2576C83.7422 29.5879 84.0758 29.8673 84.4607 30.0706C84.8457 30.2739 85.2563 30.4263 85.6926 30.5279C86.1288 30.6296 86.5651 30.7312 86.9501 30.8328C87.335 30.9345 87.643 31.0615 87.9253 31.2139C88.1819 31.3664 88.3102 31.5696 88.3102 31.8745C88.3102 32.2048 88.1819 32.4843 87.8996 32.713C87.6173 32.9416 87.181 33.0433 86.5908 33.0433C86.0519 33.0433 85.6156 32.9162 85.3589 32.6622C85.0767 32.4081 84.9227 32.0778 84.8713 31.6459H82.8953C82.9466 32.6622 83.2802 33.4752 83.8705 34.0342C84.4607 34.5931 85.3589 34.8726 86.5651 34.8726C87.6943 34.8726 88.5925 34.5931 89.2085 34.0087C89.8244 33.4498 90.1323 32.7384 90.1323 31.8745C90.1323 31.2902 90.004 30.8582 89.7474 30.5025C89.4908 30.1468 89.1571 29.8927 88.7722 29.6895Z" fill="#36393D"/>
<path id="Vector_14" d="M93.8788 27.6823C94.1355 27.4028 94.4178 27.1996 94.7514 27.0471C95.085 26.8947 95.4186 26.8184 95.7523 26.8184C96.3682 26.8184 96.8558 26.9963 97.2151 27.3266C97.6 27.6569 97.8567 28.0888 98.0106 28.6478H100.064C99.9354 28.1396 99.7557 27.6569 99.5248 27.225C99.2938 26.793 98.9602 26.3865 98.6009 26.0562C98.2416 25.7259 97.8053 25.4719 97.3177 25.294C96.8301 25.1161 96.3169 25.0145 95.7523 25.0145C95.1107 25.0145 94.4948 25.1416 93.9302 25.3702C93.3656 25.6243 92.878 25.9546 92.4417 26.3865C92.0054 26.8184 91.6975 27.352 91.4408 27.9364C91.2099 28.5462 91.0815 29.2067 91.0815 29.9181C91.0815 30.655 91.2099 31.3156 91.4408 31.9253C91.6718 32.5351 92.0054 33.0433 92.4417 33.4752C92.878 33.9071 93.3656 34.2374 93.9302 34.4915C94.4948 34.7456 95.1107 34.8472 95.7523 34.8472C96.3169 34.8472 96.8301 34.7456 97.3177 34.5677C97.8053 34.3898 98.2416 34.1358 98.6009 33.8055C98.9859 33.4752 99.2938 33.0941 99.5248 32.6367C99.7814 32.2048 99.9611 31.7221 100.064 31.1885H98.0106C97.8567 31.7221 97.6 32.1794 97.2151 32.5097C96.8301 32.84 96.3425 33.0179 95.7523 33.0179C95.4186 33.0179 95.0594 32.9416 94.7514 32.7892C94.4178 32.6367 94.1355 32.4335 93.8788 32.154C93.6222 31.8745 93.4426 31.5442 93.2886 31.1631C93.1346 30.782 93.0576 30.3755 93.0576 29.9181C93.0576 29.4608 93.1346 29.0543 93.2886 28.6732C93.4426 28.2921 93.6222 27.9618 93.8788 27.6823Z" fill="#36393D"/>
<path id="Vector_15" d="M108.815 26.3865C108.405 25.9546 107.917 25.5989 107.378 25.3702C106.814 25.1162 106.223 25.0145 105.607 25.0145C104.991 25.0145 104.401 25.1416 103.837 25.3702C103.272 25.6243 102.81 25.9546 102.399 26.3865C101.989 26.8184 101.655 27.352 101.424 27.9364C101.193 28.5462 101.065 29.2067 101.065 29.9181C101.065 30.655 101.193 31.3156 101.424 31.9253C101.655 32.5351 101.989 33.0433 102.425 33.4752C102.836 33.9071 103.349 34.2374 103.914 34.4915C104.478 34.7456 105.094 34.8472 105.736 34.8472C106.3 34.8472 106.814 34.771 107.275 34.6185C107.737 34.4661 108.122 34.2628 108.482 33.9833C108.815 33.7293 109.123 33.4244 109.38 33.0687C109.637 32.713 109.842 32.3573 109.996 31.9507H107.943C107.789 32.154 107.532 32.3827 107.199 32.6367C106.865 32.8908 106.377 33.0179 105.787 33.0179C105.453 33.0179 105.12 32.967 104.812 32.84C104.504 32.713 104.247 32.5605 104.016 32.3573C103.785 32.154 103.606 31.8999 103.452 31.6458C103.298 31.3664 103.221 31.0869 103.195 30.782H110.124C110.124 30.7058 110.15 30.6296 110.175 30.5279C110.201 30.4517 110.201 30.3501 110.227 30.2484C110.227 30.1468 110.252 30.0198 110.252 29.9181C110.252 29.1813 110.124 28.5207 109.893 27.9364C109.56 27.3266 109.226 26.8184 108.815 26.3865ZM103.118 29.1813C103.246 28.4699 103.529 27.911 103.965 27.479C104.401 27.0471 104.966 26.8184 105.607 26.8184C106.377 26.8184 106.993 27.0471 107.455 27.479C107.917 27.911 108.199 28.4953 108.328 29.1813H103.118Z" fill="#36393D"/>
<path id="Vector_16" d="M119.08 26.1581C118.721 25.8024 118.311 25.4975 117.849 25.2943C117.361 25.091 116.873 24.9894 116.334 24.9894C115.847 24.9894 115.411 25.0402 115.077 25.1672C114.718 25.2943 114.435 25.3959 114.204 25.5229C113.948 25.6754 113.717 25.8532 113.537 26.0565C113.332 25.6246 112.973 25.2943 112.562 25.091C112.305 24.964 112.023 24.8878 111.715 24.8878V25.091V34.7458H113.666V29.1816C113.666 28.8513 113.717 28.5464 113.845 28.2669C113.973 27.9875 114.127 27.7334 114.358 27.5301C114.564 27.3269 114.82 27.149 115.103 27.022C115.385 26.8949 115.693 26.8187 116.027 26.8187C116.334 26.8187 116.617 26.8949 116.899 27.022C117.181 27.149 117.412 27.3269 117.618 27.5301C117.823 27.7588 118.003 27.9875 118.131 28.2923C118.259 28.5718 118.311 28.8767 118.311 29.1816V34.7458H120.261V29.1816C120.261 28.5718 120.158 27.9875 119.953 27.4793C119.696 26.9712 119.414 26.5392 119.08 26.1581Z" fill="#36393D"/>
<path id="Vector_17" d="M130.911 21.2545H128.961V26.0819C128.781 25.8787 128.55 25.7008 128.293 25.5484C128.062 25.4213 127.78 25.2943 127.446 25.1927C127.113 25.091 126.728 25.0148 126.24 25.0148C125.599 25.0148 124.983 25.1419 124.418 25.3705C123.854 25.6246 123.366 25.9549 122.93 26.3868C122.493 26.8187 122.16 27.3523 121.929 27.9367C121.698 28.5464 121.57 29.207 121.57 29.9184C121.57 30.6553 121.698 31.3158 121.929 31.9256C122.16 32.5354 122.493 33.0436 122.93 33.4755C123.366 33.9074 123.854 34.2377 124.418 34.4918C124.983 34.7458 125.599 34.8475 126.24 34.8475C126.728 34.8475 127.164 34.7967 127.498 34.695C127.857 34.5934 128.139 34.4664 128.37 34.3139C128.627 34.1615 128.832 33.9836 129.038 33.7804C129.448 34.3393 130.116 34.7204 130.86 34.7458V30.1725V21.2545H130.911ZM128.345 32.1543C128.088 32.4338 127.78 32.637 127.446 32.7895C127.113 32.9419 126.754 33.0181 126.369 33.0181C126.009 33.0181 125.65 32.9419 125.291 32.7895C124.957 32.637 124.649 32.4338 124.393 32.1543C124.136 31.8748 123.931 31.5445 123.777 31.1634C123.623 30.7823 123.546 30.3758 123.546 29.9184C123.546 29.4611 123.623 29.0546 123.777 28.6735C123.931 28.2924 124.136 27.9621 124.393 27.6826C124.649 27.4031 124.957 27.1999 125.291 27.0474C125.624 26.895 125.984 26.8187 126.369 26.8187C126.754 26.8187 127.087 26.895 127.446 27.0474C127.78 27.1999 128.088 27.4031 128.345 27.6826C128.601 27.9621 128.807 28.2924 128.961 28.6735C129.115 29.0546 129.192 29.4611 129.192 29.9184C129.192 30.3758 129.115 30.8077 128.961 31.1634C128.807 31.5445 128.601 31.8748 128.345 32.1543Z" fill="#36393D"/>
<path id="Vector_18" d="M140.484 26.3865C140.047 25.9546 139.56 25.5989 138.995 25.3702C138.431 25.1162 137.815 25.0145 137.173 25.0145C136.532 25.0145 135.916 25.1416 135.351 25.3702C134.786 25.6243 134.299 25.9546 133.863 26.3865C133.426 26.8184 133.093 27.352 132.862 27.9364C132.631 28.5462 132.502 29.2067 132.502 29.9181C132.502 30.655 132.631 31.3156 132.862 31.9253C133.093 32.5351 133.426 33.0433 133.863 33.4752C134.299 33.9071 134.786 34.2374 135.351 34.4915C135.916 34.7456 136.532 34.8472 137.173 34.8472C137.815 34.8472 138.431 34.7201 138.995 34.4915C139.56 34.2628 140.047 33.9071 140.484 33.4752C140.92 33.0433 141.228 32.5097 141.485 31.9253C141.716 31.3156 141.844 30.655 141.844 29.9436C141.844 29.2067 141.716 28.5461 141.485 27.9618C141.254 27.3266 140.92 26.8184 140.484 26.3865ZM139.663 31.1631C139.509 31.5442 139.303 31.8745 139.072 32.154C138.816 32.4335 138.533 32.6367 138.2 32.7892C137.866 32.9416 137.532 33.0179 137.199 33.0179C136.865 33.0179 136.506 32.9416 136.172 32.7892C135.839 32.6367 135.556 32.4335 135.3 32.154C135.043 31.8745 134.863 31.5442 134.71 31.1631C134.556 30.782 134.479 30.3755 134.479 29.9181C134.479 29.4608 134.556 29.0543 134.71 28.6732C134.863 28.2921 135.069 27.9618 135.3 27.6823C135.556 27.4028 135.839 27.1996 136.172 27.0471C136.506 26.8947 136.84 26.8184 137.199 26.8184C137.532 26.8184 137.892 26.8947 138.2 27.0471C138.533 27.1996 138.816 27.4028 139.072 27.6823C139.329 27.9618 139.509 28.2921 139.663 28.6732C139.817 29.0543 139.894 29.4608 139.894 29.9181C139.894 30.3755 139.817 30.8074 139.663 31.1631Z" fill="#36393D"/>
<path id="Vector_19" d="M149.748 21.2545H147.798V34.7459H149.748V21.2545Z" fill="#4586F0"/>
<path id="Vector_20" d="M159.475 28.419C159.475 27.9362 159.372 27.4789 159.192 27.0724C159.013 26.6659 158.756 26.2847 158.422 25.9799C158.089 25.675 157.704 25.4209 157.216 25.243C156.754 25.0652 156.241 24.9636 155.676 24.9636C154.47 24.9636 153.546 25.243 152.879 25.8274C152.212 26.4118 151.852 27.1232 151.801 27.9616H153.752C153.803 27.6313 153.983 27.3519 154.29 27.1232C154.598 26.8945 155.06 26.7675 155.702 26.7675C156.318 26.7675 156.754 26.9199 157.088 27.1994C157.396 27.5043 157.55 27.8854 157.55 28.3682V28.6985C156.344 28.6985 155.368 28.7747 154.573 28.9271C153.803 29.0796 153.187 29.3082 152.725 29.5877C152.263 29.8672 151.955 30.1975 151.75 30.5786C151.57 30.9597 151.468 31.417 151.468 31.8998C151.468 32.7636 151.75 33.4496 152.34 33.9832C152.905 34.5168 153.752 34.7962 154.829 34.7962C155.317 34.7962 155.753 34.7454 156.087 34.6438C156.446 34.5422 156.729 34.4151 156.959 34.2627C157.216 34.1102 157.447 33.9324 157.627 33.7291C158.037 34.2881 158.705 34.6692 159.475 34.6946V32.8399V28.419ZM156.857 32.5096C156.395 32.9161 155.779 33.1448 154.932 33.1448C154.444 33.1448 154.06 33.0431 153.803 32.8145C153.546 32.5858 153.418 32.3571 153.418 32.0776C153.418 31.8236 153.469 31.6203 153.572 31.417C153.675 31.2138 153.88 31.0613 154.188 30.9089C154.496 30.7819 154.906 30.6548 155.445 30.5786C155.984 30.5024 156.677 30.4516 157.55 30.4516V30.9851C157.524 31.5695 157.293 32.0776 156.857 32.5096Z" fill="#4586F0"/>
<path id="Vector_21" d="M170.484 27.9367C170.253 27.3269 169.919 26.8187 169.483 26.3868C169.047 25.9549 168.559 25.5992 167.995 25.3705C167.43 25.1164 166.814 25.0148 166.172 25.0148C165.71 25.0148 165.326 25.0656 164.992 25.1927C164.658 25.3197 164.376 25.4213 164.145 25.5484C163.888 25.7008 163.657 25.8787 163.478 26.0819V21.2545H161.527V34.7458C162.272 34.7458 162.939 34.3647 163.349 33.8058C163.349 33.8058 163.349 33.8058 163.375 33.7804C163.555 33.9836 163.786 34.1615 164.042 34.3139C164.273 34.4664 164.556 34.5934 164.915 34.695C165.274 34.7967 165.685 34.8475 166.172 34.8475C166.814 34.8475 167.43 34.7204 167.995 34.4918C168.559 34.2631 169.047 33.9074 169.483 33.4755C169.919 33.0436 170.253 32.51 170.484 31.9256C170.715 31.3158 170.843 30.6553 170.843 29.9438C170.843 29.207 170.715 28.521 170.484 27.9367ZM168.662 31.1634C168.508 31.5445 168.302 31.8748 168.046 32.1543C167.789 32.4338 167.481 32.637 167.148 32.7895C166.814 32.9419 166.455 33.0181 166.07 33.0181C165.685 33.0181 165.351 32.9419 164.992 32.7895C164.658 32.637 164.35 32.4338 164.094 32.1543C163.837 31.8748 163.632 31.5445 163.478 31.1634C163.324 30.7823 163.247 30.3758 163.247 29.9184C163.247 29.4611 163.324 29.0546 163.478 28.6735C163.632 28.2924 163.837 27.9621 164.094 27.6826C164.35 27.4031 164.658 27.1999 164.992 27.0474C165.326 26.895 165.685 26.8187 166.07 26.8187C166.429 26.8187 166.788 26.895 167.148 27.0474C167.481 27.1999 167.789 27.4031 168.046 27.6826C168.302 27.9621 168.508 28.2924 168.662 28.6735C168.816 29.0546 168.893 29.4611 168.893 29.9184C168.867 30.3758 168.816 30.8077 168.662 31.1634Z" fill="#4586F0"/>
</g>
</g>
</g>
</g>
<defs>
<linearGradient id="paint0_linear_8240_106413" x1="34.6579" y1="25.6873" x2="22.272" y2="17.5234" gradientUnits="userSpaceOnUse">
<stop stop-color="#1F49A3"/>
<stop offset="0.0459506" stop-color="#234FAA"/>
<stop offset="0.2636" stop-color="#3267C9"/>
<stop offset="0.477" stop-color="#3C78DE"/>
<stop offset="0.6824" stop-color="#4382EC"/>
<stop offset="0.8708" stop-color="#4586F0"/>
</linearGradient>
<linearGradient id="paint1_linear_8240_106413" x1="19.8427" y1="37.1142" x2="29.0311" y2="27.7147" gradientUnits="userSpaceOnUse">
<stop stop-color="#1F49A3"/>
<stop offset="0.4894" stop-color="#3368CB"/>
<stop offset="1" stop-color="#4586F0"/>
</linearGradient>
<linearGradient id="paint2_linear_8240_106413" x1="21.1738" y1="25.6386" x2="5.32653" y2="39.0964" gradientUnits="userSpaceOnUse">
<stop stop-color="#4586F0"/>
<stop offset="0.1261" stop-color="#4C8BF1"/>
<stop offset="0.312" stop-color="#6098F3"/>
<stop offset="0.5347" stop-color="#81AEF7"/>
<stop offset="0.7841" stop-color="#ADCCFD"/>
<stop offset="0.8229" stop-color="#B5D1FE"/>
</linearGradient>
</defs>
</svg>
